<svg id="Layer_1" data-name="Layer 1" xmlns="http://www.w3.org/2000/svg" xmlns:xlink="http://www.w3.org/1999/xlink" viewBox="0 0 255 255">
  <defs>
    <style>
      .cls-1, .cls-5 {
        fill: none;
      }

      .cls-2 {
        fill: #478e7a;
      }

      .cls-3 {
        fill: #316759;
      }

      .cls-4 {
        clip-path: url(#clip-path);
      }

      .cls-5 {
        stroke: #fff;
        stroke-miterlimit: 10;
        stroke-width: 2px;
      }
    </style>
    <clipPath id="clip-path">
      <path class="cls-1" d="M159.33,128a32,32,0,1,1-32-32A32,32,0,0,1,159.33,128Zm-32-70a70,70,0,1,0,70,70A70,70,0,0,0,127.33,58Z"/>
    </clipPath>
  </defs>
  <g id="hexa-crack">
    <polygon class="cls-2" points="188.53 22 66.13 22 4.93 128 66.13 234 188.53 234 249.73 128 188.53 22"/>
    <circle class="cls-3" cx="127.33" cy="128" r="73"/>
    <path class="cls-2" d="M127.33,62a66,66,0,1,0,66,66A66,66,0,0,0,127.33,62Z"/>
    <g class="cls-4">
      <g>
        <g>
          <g>
            <polygon class="cls-3" points="246.33 196.85 246.33 180.11 231.83 171.74 217.33 180.11 217.33 196.85 231.83 205.22 246.33 196.85"/>
            <path class="cls-3" d="M231.83,172.89l13.5,7.8v15.59l-13.5,7.79-13.5-7.79V180.69l13.5-7.8m0-1.15-14.5,8.37v16.74l14.5,8.38,14.5-8.38V180.11l-14.5-8.37Z"/>
          </g>
          <g>
            <polygon class="cls-3" points="200.33 166.85 200.33 150.11 214.83 141.74 229.33 150.11 229.33 166.85 214.83 175.22 200.33 166.85"/>
            <path class="cls-3" d="M214.83,142.89l-13.5,7.8v15.59l13.5,7.79,13.5-7.79V150.69l-13.5-7.8m0-1.15,14.5,8.37v16.74l-14.5,8.38-14.5-8.38V150.11l14.5-8.37Z"/>
          </g>
          <g>
            <polygon class="cls-3" points="246.33 136.85 246.33 120.11 231.83 111.74 217.33 120.11 217.33 136.85 231.83 145.22 246.33 136.85"/>
            <path class="cls-3" d="M231.83,112.89l13.5,7.8v15.59l-13.5,7.79-13.5-7.79V120.69l13.5-7.8m0-1.15-14.5,8.37v16.74l14.5,8.38,14.5-8.38V120.11l-14.5-8.37Z"/>
          </g>
          <g>
            <polygon class="cls-3" points="200.33 106.85 200.33 90.11 214.83 81.74 229.33 90.11 229.33 106.85 214.83 115.22 200.33 106.85"/>
            <path class="cls-3" d="M214.83,82.89l-13.5,7.8v15.59l13.5,7.79,13.5-7.79V90.69l-13.5-7.8m0-1.15,14.5,8.37v16.74l-14.5,8.38-14.5-8.38V90.11l14.5-8.37Z"/>
          </g>
          <g>
            <polygon class="cls-3" points="246.33 76.85 246.33 60.11 231.83 51.74 217.33 60.11 217.33 76.85 231.83 85.22 246.33 76.85"/>
            <path class="cls-3" d="M231.83,52.89l13.5,7.8V76.28l-13.5,7.79-13.5-7.79V60.69l13.5-7.8m0-1.15-14.5,8.37V76.85l14.5,8.38,14.5-8.38V60.11l-14.5-8.37Z"/>
          </g>
        </g>
        <g>
          <g>
            <polygon class="cls-3" points="211.33 196.85 211.33 180.11 196.83 171.74 182.33 180.11 182.33 196.85 196.83 205.22 211.33 196.85"/>
            <path class="cls-3" d="M196.83,172.89l13.5,7.8v15.59l-13.5,7.79-13.5-7.79V180.69l13.5-7.8m0-1.15-14.5,8.37v16.74l14.5,8.38,14.5-8.38V180.11l-14.5-8.37Z"/>
          </g>
          <g>
            <polygon class="cls-3" points="165.33 166.85 165.33 150.11 179.83 141.74 194.33 150.11 194.33 166.85 179.83 175.22 165.33 166.85"/>
            <path class="cls-3" d="M179.83,142.89l-13.5,7.8v15.59l13.5,7.79,13.5-7.79V150.69l-13.5-7.8m0-1.15,14.5,8.37v16.74l-14.5,8.38-14.5-8.38V150.11l14.5-8.37Z"/>
          </g>
          <g>
            <polygon class="cls-3" points="211.33 136.85 211.33 120.11 196.83 111.74 182.33 120.11 182.33 136.85 196.83 145.22 211.33 136.85"/>
            <path class="cls-3" d="M196.83,112.89l13.5,7.8v15.59l-13.5,7.79-13.5-7.79V120.69l13.5-7.8m0-1.15-14.5,8.37v16.74l14.5,8.38,14.5-8.38V120.11l-14.5-8.37Z"/>
          </g>
          <g>
            <polygon class="cls-3" points="165.33 106.85 165.33 90.11 179.83 81.74 194.33 90.11 194.33 106.85 179.83 115.22 165.33 106.85"/>
            <path class="cls-3" d="M179.83,82.89l-13.5,7.8v15.59l13.5,7.79,13.5-7.79V90.69l-13.5-7.8m0-1.15,14.5,8.37v16.74l-14.5,8.38-14.5-8.38V90.11l14.5-8.37Z"/>
          </g>
          <g>
            <polygon class="cls-3" points="211.33 76.85 211.33 60.11 196.83 51.74 182.33 60.11 182.33 76.85 196.83 85.22 211.33 76.85"/>
            <path class="cls-3" d="M196.83,52.89l13.5,7.8V76.28l-13.5,7.79-13.5-7.79V60.69l13.5-7.8m0-1.15-14.5,8.37V76.85l14.5,8.38,14.5-8.38V60.11l-14.5-8.37Z"/>
          </g>
        </g>
        <g>
          <g>
            <polygon class="cls-3" points="176.33 196.85 176.33 180.11 161.83 171.74 147.33 180.11 147.33 196.85 161.83 205.22 176.33 196.85"/>
            <path class="cls-3" d="M161.83,172.89l13.5,7.8v15.59l-13.5,7.79-13.5-7.79V180.69l13.5-7.8m0-1.15-14.5,8.37v16.74l14.5,8.38,14.5-8.38V180.11l-14.5-8.37Z"/>
          </g>
          <g>
            <polygon class="cls-3" points="130.33 166.85 130.33 150.11 144.83 141.74 159.33 150.11 159.33 166.85 144.83 175.22 130.33 166.85"/>
            <path class="cls-3" d="M144.83,142.89l-13.5,7.8v15.59l13.5,7.79,13.5-7.79V150.69l-13.5-7.8m0-1.15,14.5,8.37v16.74l-14.5,8.38-14.5-8.38V150.11l14.5-8.37Z"/>
          </g>
          <g>
            <polygon class="cls-3" points="176.33 136.85 176.33 120.11 161.83 111.74 147.33 120.11 147.33 136.85 161.83 145.22 176.33 136.85"/>
            <path class="cls-3" d="M161.83,112.89l13.5,7.8v15.59l-13.5,7.79-13.5-7.79V120.69l13.5-7.8m0-1.15-14.5,8.37v16.74l14.5,8.38,14.5-8.38V120.11l-14.5-8.37Z"/>
          </g>
          <g>
            <polygon class="cls-3" points="130.33 106.85 130.33 90.11 144.83 81.74 159.33 90.11 159.33 106.85 144.83 115.22 130.33 106.85"/>
            <path class="cls-3" d="M144.83,82.89l-13.5,7.8v15.59l13.5,7.79,13.5-7.79V90.69l-13.5-7.8m0-1.15,14.5,8.37v16.74l-14.5,8.38-14.5-8.38V90.11l14.5-8.37Z"/>
          </g>
          <g>
            <polygon class="cls-3" points="176.33 76.85 176.33 60.11 161.83 51.74 147.33 60.11 147.33 76.85 161.83 85.22 176.33 76.85"/>
            <path class="cls-3" d="M161.83,52.89l13.5,7.8V76.28l-13.5,7.79-13.5-7.79V60.69l13.5-7.8m0-1.15-14.5,8.37V76.85l14.5,8.38,14.5-8.38V60.11l-14.5-8.37Z"/>
          </g>
        </g>
        <g>
          <g>
            <polygon class="cls-3" points="141.33 196.85 141.33 180.11 126.83 171.74 112.33 180.11 112.33 196.85 126.83 205.22 141.33 196.85"/>
            <path class="cls-3" d="M126.83,172.89l13.5,7.8v15.59l-13.5,7.79-13.5-7.79V180.69l13.5-7.8m0-1.15-14.5,8.37v16.74l14.5,8.38,14.5-8.38V180.11l-14.5-8.37Z"/>
          </g>
          <g>
            <polygon class="cls-3" points="95.33 166.85 95.33 150.11 109.83 141.74 124.33 150.11 124.33 166.85 109.83 175.22 95.33 166.85"/>
            <path class="cls-3" d="M109.83,142.89l-13.5,7.8v15.59l13.5,7.79,13.5-7.79V150.69l-13.5-7.8m0-1.15,14.5,8.37v16.74l-14.5,8.38-14.5-8.38V150.11l14.5-8.37Z"/>
          </g>
          <g>
            <polygon class="cls-3" points="141.33 136.85 141.33 120.11 126.83 111.74 112.33 120.11 112.33 136.85 126.83 145.22 141.33 136.85"/>
            <path class="cls-3" d="M126.83,112.89l13.5,7.8v15.59l-13.5,7.79-13.5-7.79V120.69l13.5-7.8m0-1.15-14.5,8.37v16.74l14.5,8.38,14.5-8.38V120.11l-14.5-8.37Z"/>
          </g>
          <g>
            <polygon class="cls-3" points="95.33 106.85 95.33 90.11 109.83 81.74 124.33 90.11 124.33 106.85 109.83 115.22 95.33 106.85"/>
            <path class="cls-3" d="M109.83,82.89l-13.5,7.8v15.59l13.5,7.79,13.5-7.79V90.69l-13.5-7.8m0-1.15,14.5,8.37v16.74l-14.5,8.38-14.5-8.38V90.11l14.5-8.37Z"/>
          </g>
          <g>
            <polygon class="cls-3" points="141.33 76.85 141.33 60.11 126.83 51.74 112.33 60.11 112.33 76.85 126.83 85.22 141.33 76.85"/>
            <path class="cls-3" d="M126.83,52.89l13.5,7.8V76.28l-13.5,7.79-13.5-7.79V60.69l13.5-7.8m0-1.15-14.5,8.37V76.85l14.5,8.38,14.5-8.38V60.11l-14.5-8.37Z"/>
          </g>
        </g>
        <g>
          <g>
            <polygon class="cls-3" points="106.33 196.85 106.33 180.11 91.83 171.74 77.33 180.11 77.33 196.85 91.83 205.22 106.33 196.85"/>
            <path class="cls-3" d="M91.83,172.89l13.5,7.8v15.59l-13.5,7.79-13.5-7.79V180.69l13.5-7.8m0-1.15-14.5,8.37v16.74l14.5,8.38,14.5-8.38V180.11l-14.5-8.37Z"/>
          </g>
          <g>
            <polygon class="cls-3" points="60.33 166.85 60.33 150.11 74.83 141.74 89.33 150.11 89.33 166.85 74.83 175.22 60.33 166.85"/>
            <path class="cls-3" d="M74.83,142.89l-13.5,7.8v15.59l13.5,7.79,13.5-7.79V150.69l-13.5-7.8m0-1.15,14.5,8.37v16.74l-14.5,8.38-14.5-8.38V150.11l14.5-8.37Z"/>
          </g>
          <g>
            <polygon class="cls-3" points="106.33 136.85 106.33 120.11 91.83 111.74 77.33 120.11 77.33 136.85 91.83 145.22 106.33 136.85"/>
            <path class="cls-3" d="M91.83,112.89l13.5,7.8v15.59l-13.5,7.79-13.5-7.79V120.69l13.5-7.8m0-1.15-14.5,8.37v16.74l14.5,8.38,14.5-8.38V120.11l-14.5-8.37Z"/>
          </g>
          <g>
            <polygon class="cls-3" points="60.33 106.85 60.33 90.11 74.83 81.74 89.33 90.11 89.33 106.85 74.83 115.22 60.33 106.85"/>
            <path class="cls-3" d="M74.83,82.89l-13.5,7.8v15.59l13.5,7.79,13.5-7.79V90.69l-13.5-7.8m0-1.15,14.5,8.37v16.74l-14.5,8.38-14.5-8.38V90.11l14.5-8.37Z"/>
          </g>
          <g>
            <polygon class="cls-3" points="106.33 76.85 106.33 60.11 91.83 51.74 77.33 60.11 77.33 76.85 91.83 85.22 106.33 76.85"/>
            <path class="cls-3" d="M91.83,52.89l13.5,7.8V76.28l-13.5,7.79-13.5-7.79V60.69l13.5-7.8m0-1.15-14.5,8.37V76.85l14.5,8.38,14.5-8.38V60.11l-14.5-8.37Z"/>
          </g>
        </g>
        <g>
          <g>
            <polygon class="cls-3" points="71.33 196.85 71.33 180.11 56.83 171.74 42.33 180.11 42.33 196.85 56.83 205.22 71.33 196.85"/>
            <path class="cls-3" d="M56.83,172.89l13.5,7.8v15.59l-13.5,7.79-13.5-7.79V180.69l13.5-7.8m0-1.15-14.5,8.37v16.74l14.5,8.38,14.5-8.38V180.11l-14.5-8.37Z"/>
          </g>
          <g>
            <polygon class="cls-3" points="25.33 166.85 25.33 150.11 39.83 141.74 54.33 150.11 54.33 166.85 39.83 175.22 25.33 166.85"/>
            <path class="cls-3" d="M39.83,142.89l-13.5,7.8v15.59l13.5,7.79,13.5-7.79V150.69l-13.5-7.8m0-1.15,14.5,8.37v16.74l-14.5,8.38-14.5-8.38V150.11l14.5-8.37Z"/>
          </g>
          <g>
            <polygon class="cls-3" points="71.33 136.85 71.33 120.11 56.83 111.74 42.33 120.11 42.33 136.85 56.83 145.22 71.33 136.85"/>
            <path class="cls-3" d="M56.83,112.89l13.5,7.8v15.59l-13.5,7.79-13.5-7.79V120.69l13.5-7.8m0-1.15-14.5,8.37v16.74l14.5,8.38,14.5-8.38V120.11l-14.5-8.37Z"/>
          </g>
          <g>
            <polygon class="cls-3" points="25.33 106.85 25.33 90.11 39.83 81.74 54.33 90.11 54.33 106.85 39.83 115.22 25.33 106.85"/>
            <path class="cls-3" d="M39.83,82.89l-13.5,7.8v15.59l13.5,7.79,13.5-7.79V90.69l-13.5-7.8m0-1.15,14.5,8.37v16.74l-14.5,8.38-14.5-8.38V90.11l14.5-8.37Z"/>
          </g>
          <g>
            <polygon class="cls-3" points="71.33 76.85 71.33 60.11 56.83 51.74 42.33 60.11 42.33 76.85 56.83 85.22 71.33 76.85"/>
            <path class="cls-3" d="M56.83,52.89l13.5,7.8V76.28l-13.5,7.79-13.5-7.79V60.69l13.5-7.8m0-1.15-14.5,8.37V76.85l14.5,8.38,14.5-8.38V60.11l-14.5-8.37Z"/>
          </g>
        </g>
      </g>
    </g>
    <path class="cls-3" d="M159.33,128a32,32,0,1,1-32-32A32,32,0,0,1,159.33,128Z"/>
    <g>
      <g>
        <polygon points="81.5 124.87 67 99.76 96 99.76 81.5 124.87"/>
        <polygon class="cls-5" points="81.5 124.87 67 99.76 96 99.76 81.5 124.87"/>
      </g>
      <g>
        <polygon points="172.5 130.76 158 155.87 187 155.87 172.5 130.76"/>
        <polygon class="cls-5" points="172.5 130.76 158 155.87 187 155.87 172.5 130.76"/>
      </g>
    </g>
  </g>
</svg>
