<svg id="Layer_1" data-name="Layer 1" xmlns="http://www.w3.org/2000/svg" viewBox="0 0 255 255">
  <defs>
    <style>
      .cls-1 {
        fill: #478e7a;
      }

      .cls-2 {
        fill: #316759;
      }

      .cls-3 {
        fill: none;
        stroke: #fff;
        stroke-miterlimit: 10;
        stroke-width: 2px;
      }
    </style>
  </defs>
  <g id="hexa-pinch">
    <polygon class="cls-1" points="188.7 21.5 66.3 21.5 5.1 127.5 66.3 233.5 188.7 233.5 249.9 127.5 188.7 21.5"/>
    <polygon class="cls-2" points="168.97 55.67 86.03 55.67 44.55 127.5 86.03 199.33 168.97 199.33 210.45 127.5 168.97 55.67"/>
    <polygon class="cls-1" points="158.48 73.83 96.52 73.83 65.53 127.5 96.52 181.17 158.48 181.17 189.47 127.5 158.48 73.83"/>
    <g>
      <g>
        <polygon points="51 190.31 36.5 165.19 65.5 165.19 51 190.31"/>
        <polygon class="cls-3" points="51 190.31 36.5 165.19 65.5 165.19 51 190.31"/>
      </g>
      <g>
        <polygon points="204 64.19 189.5 89.31 218.5 89.31 204 64.19"/>
        <polygon class="cls-3" points="204 64.19 189.5 89.31 218.5 89.31 204 64.19"/>
      </g>
    </g>
  </g>
</svg>
